<svg xmlns="http://www.w3.org/2000/svg" viewBox="0 0 100 120"><defs><linearGradient id="metal" x2=".8" y2="1"><stop stop-color="#d9f9ff"/><stop offset=".45" stop-color="#5093af"/><stop offset="1" stop-color="#102c4d"/></linearGradient><linearGradient id="dark" x2="1" y2="1"><stop stop-color="#244969"/><stop offset="1" stop-color="#071121"/></linearGradient></defs><ellipse cx="50" cy="112" rx="25" ry="5" fill="#02141a" opacity=".5"/><path d="M32 80 28 107 44 110 50 88 56 110 72 107 68 80Z" fill="url(#dark)" stroke="#70cce8" stroke-width="2"/><path d="M34 32 24 42 27 81 50 92 73 81 76 42 66 32Z" fill="url(#metal)" stroke="#b8f8ff" stroke-width="3"/><path d="M38 41 50 50 62 41 65 72 50 82 35 72Z" fill="#122b46" stroke="#30d5ed" stroke-width="2"/><path d="M43 55 57 55 57 69 43 69Z" fill="#b31726" stroke="#ff7780" stroke-width="2"/><text x="50" y="66" text-anchor="middle" fill="white" font-family="sans-serif" font-size="11" font-weight="900">S</text><path d="M28 40 18 48 21 75 34 78 38 67 33 60Z M72 40 82 48 79 75 66 78 62 67 67 60Z" fill="url(#metal)" stroke="#aaf2ff" stroke-width="2"/><path d="M32 14 39 7 61 7 68 14 71 32 61 42 39 42 29 32Z" fill="url(#dark)" stroke="#99ebff" stroke-width="3"/><path d="M33 23 50 27 67 23 63 32 50 34 37 32Z" fill="#66f2ff"/><path d="M77 56 93 83 88 87 69 65Z" fill="#c4fbff" stroke="#5de9ff" stroke-width="2"/><text x="50" y="74" text-anchor="middle" fill="#ffffff" font-family="sans-serif" font-size="3.5" font-weight="bold">SWINBURNE</text></svg>